<svg width="21" height="21" viewBox="0 0 21 21" fill="none" xmlns="http://www.w3.org/2000/svg">
<path d="M11.497 2.3272C12.1081 2.32486 12.7192 2.331 13.3301 2.34563L13.4926 2.35149C13.6801 2.35819 13.8652 2.36656 14.0888 2.37661C14.9798 2.41848 15.5877 2.55916 16.1212 2.766C16.6738 2.9787 17.1394 3.26676 17.605 3.73236C18.0307 4.15073 18.3602 4.6568 18.5706 5.21539C18.7774 5.74882 18.9181 6.35761 18.9599 7.2486C18.97 7.47135 18.9784 7.65725 18.9851 7.84483L18.9901 8.00728C19.005 8.61791 19.0114 9.22871 19.0094 9.83951L19.0102 10.4642V11.5612C19.0123 12.1723 19.0058 12.7834 18.9909 13.3943L18.9859 13.5567C18.9792 13.7443 18.9708 13.9294 18.9608 14.153C18.9189 15.044 18.7766 15.6519 18.5706 16.1853C18.3609 16.7445 18.0314 17.251 17.605 17.6692C17.1863 18.0949 16.68 18.4243 16.1212 18.6347C15.5877 18.8416 14.9798 18.9822 14.0888 19.0241C13.8652 19.0342 13.6801 19.0425 13.4926 19.0492L13.3301 19.0543C12.7192 19.0691 12.1081 19.0756 11.497 19.0735L10.8723 19.0744H9.77619C9.16511 19.0764 8.55402 19.07 7.94312 19.0551L7.78066 19.0501C7.58187 19.0429 7.38313 19.0345 7.18444 19.0249C6.29344 18.9831 5.68549 18.8407 5.15123 18.6347C4.59242 18.4248 4.08626 18.0953 3.6682 17.6692C3.242 17.2507 2.91221 16.7443 2.70184 16.1853C2.495 15.6519 2.35432 15.044 2.31245 14.153C2.30312 13.9543 2.29475 13.7555 2.28732 13.5567L2.28314 13.3943C2.2677 12.7834 2.26072 12.1723 2.2622 11.5612V9.83951C2.25986 9.22871 2.26601 8.61791 2.28062 8.00728L2.28649 7.84483C2.29319 7.65725 2.30156 7.47135 2.31161 7.2486C2.35348 6.35677 2.49416 5.74965 2.701 5.21539C2.9115 4.65653 3.24193 4.15059 3.66903 3.7332C4.08681 3.30675 4.59265 2.97667 5.15123 2.766C5.68549 2.55916 6.29261 2.41848 7.18444 2.37661L7.78066 2.35149L7.94312 2.3473C8.55374 2.33187 9.16454 2.32489 9.77535 2.32636L11.497 2.3272ZM10.6362 6.5142C10.0814 6.50635 9.53063 6.60885 9.01581 6.81572C8.50099 7.02259 8.03243 7.32973 7.63734 7.71926C7.24225 8.1088 6.92853 8.57298 6.71439 9.08482C6.50026 9.59666 6.38999 10.146 6.38999 10.7008C6.38999 11.2556 6.50026 11.8049 6.71439 12.3167C6.92853 12.8286 7.24225 13.2928 7.63734 13.6823C8.03243 14.0718 8.50099 14.379 9.01581 14.5858C9.53063 14.7927 10.0814 14.8952 10.6362 14.8874C11.7467 14.8874 12.8116 14.4462 13.5969 13.661C14.3821 12.8758 14.8232 11.8108 14.8232 10.7004C14.8232 9.5899 14.3821 8.52492 13.5969 7.73971C12.8116 6.95449 11.7467 6.5142 10.6362 6.5142ZM10.6362 8.189C10.9699 8.18285 11.3015 8.24326 11.6116 8.3667C11.9217 8.49014 12.2041 8.67414 12.4423 8.90794C12.6805 9.14175 12.8697 9.42067 12.9989 9.72843C13.1281 10.0362 13.1946 10.3666 13.1947 10.7004C13.1947 11.0341 13.1283 11.3645 12.9992 11.6723C12.8701 11.9801 12.681 12.2591 12.4429 12.493C12.2048 12.7269 11.9224 12.911 11.6124 13.0345C11.3023 13.1581 10.9707 13.2186 10.637 13.2126C9.97076 13.2126 9.33177 12.9479 8.86064 12.4768C8.38951 12.0056 8.12484 11.3666 8.12484 10.7004C8.12484 10.0341 8.38951 9.3951 8.86064 8.92397C9.33177 8.45284 9.97076 8.18816 10.637 8.18816L10.6362 8.189ZM15.0325 5.2581C14.7624 5.26891 14.5069 5.38384 14.3196 5.5788C14.1323 5.77376 14.0277 6.03364 14.0277 6.30401C14.0277 6.57438 14.1323 6.83426 14.3196 7.02922C14.5069 7.22419 14.7624 7.33911 15.0325 7.34992C15.3102 7.34992 15.5764 7.23964 15.7727 7.04334C15.969 6.84703 16.0793 6.58079 16.0793 6.30317C16.0793 6.02556 15.969 5.75932 15.7727 5.56301C15.5764 5.36671 15.3102 5.25643 15.0325 5.25643V5.2581Z" fill="#FCFCFC"/>
</svg>
