<svg width="21" height="21" viewBox="0 0 21 21" fill="none" xmlns="http://www.w3.org/2000/svg">
<path d="M6.50975 4.83872C6.50953 5.28291 6.33287 5.70881 6.01863 6.02274C5.70438 6.33667 5.2783 6.51291 4.83412 6.51268C4.38993 6.51246 3.96403 6.3358 3.6501 6.02155C3.33617 5.70731 3.15993 5.28123 3.16016 4.83705C3.16038 4.39286 3.33704 3.96696 3.65129 3.65303C3.96553 3.3391 4.39161 3.16286 4.83579 3.16309C5.27998 3.16331 5.70588 3.33997 6.01981 3.65422C6.33374 3.96846 6.50998 4.39454 6.50975 4.83872ZM6.56 7.75287H3.2104V18.2371H6.56V7.75287ZM11.8524 7.75287H8.51951V18.2371H11.8189V12.7354C11.8189 9.67052 15.8133 9.3858 15.8133 12.7354V18.2371H19.121V11.5965C19.121 6.42978 13.209 6.62238 11.8189 9.1597L11.8524 7.75287Z" fill="#FCFCFC"/>
</svg>
